<?xml version="1.0" encoding="UTF-8" standalone="no"?>
<!-- Created with Inkscape (http://www.inkscape.org/) -->

<svg
   width="35"
   height="24"
   viewBox="0 0 146.53522 146.53522"
   version="1.1"
   id="svg5"
   xml:space="preserve"
   inkscape:version="1.2.2 (732a01da63, 2022-12-09)"
   sodipodi:docname="image67.svg"
   xmlns:inkscape="http://www.inkscape.org/namespaces/inkscape"
   xmlns:sodipodi="http://sodipodi.sourceforge.net/DTD/sodipodi-0.dtd"
   xmlns="http://www.w3.org/2000/svg"
   xmlns:svg="http://www.w3.org/2000/svg"><sodipodi:namedview
     id="namedview7"
     pagecolor="#ffffff"
     bordercolor="#000000"
     borderopacity="0.25"
     inkscape:showpageshadow="2"
     inkscape:pageopacity="0.0"
     inkscape:pagecheckerboard="0"
     inkscape:deskcolor="#d1d1d1"
     inkscape:document-units="mm"
     showgrid="false"
     inkscape:zoom="0.69130191"
     inkscape:cx="175.75534"
     inkscape:cy="329.81248"
     inkscape:window-width="1920"
     inkscape:window-height="974"
     inkscape:window-x="-11"
     inkscape:window-y="-11"
     inkscape:window-maximized="1"
     inkscape:current-layer="g167" /><defs
     id="defs2"><inkscape:path-effect
       effect="powerclip"
       id="path-effect1561"
       is_visible="true"
       lpeversion="1"
       inverse="true"
       flatten="false"
       hide_clip="false"
       message="Utilice la regla de relleno parimpar en el diálogo &lt;b&gt;Relleno y borde&lt;/b&gt; si el resultado no está aplanada después de convertir el recorte en trayectos." /><clipPath
       clipPathUnits="userSpaceOnUse"
       id="clipPath227"><circle
         style="fill:#000000;stroke-width:0.248411"
         id="circle229"
         cx="-58.557995"
         cy="62.002579"
         r="73.484535"
         mask="none" /></clipPath><clipPath
       clipPathUnits="userSpaceOnUse"
       id="clipPath1557"><path
         id="lpe_path-effect1561"
         style="fill:#ff6600;fill-opacity:0.439803;stroke-width:2.39923"
         class="powerclip"
         d="m -165.38407,11.674404 h 92.670104 v 92.670106 h -92.670104 z m 68.150765,46.717789 a 21.815722,21.815722 0 0 0 -21.815725,-21.815722 21.815722,21.815722 0 0 0 -21.81572,21.815722 21.815722,21.815722 0 0 0 21.81572,21.815721 21.815722,21.815722 0 0 0 21.815725,-21.815721 z" /></clipPath></defs><g
     inkscape:label="Capa 1"
     inkscape:groupmode="layer"
     id="layer1"
     transform="translate(193.68175,16.623275)"><g
       id="g167"
       transform="translate(208.20618,-1.5309278)"><circle
         style="fill:#00e400;fill-opacity:1;stroke-width:0.264583"
         id="path330"
         cx="-328.7861"
         cy="58.392189"
         r="71.953606" /><path
         id="path4171"
         clip-path="url(#clipPath1557)"
         style="font-size:104.998px;fill:#002c26;fill-opacity:1;stroke-width:2.40409"
         transform="translate(-209.88355,2.4428265)"
         d="m -119.04881,16.674327 a 41.335052,41.335052 0 0 0 -41.33546,41.334945 41.335052,41.335052 0 0 0 41.33546,41.335461 41.335052,41.335052 0 0 0 35.363214,-19.965189 L -107.03766,62.838435 -103.2105,50.208198 -84.410099,35.45716 A 41.335052,41.335052 0 0 0 -119.04881,16.674327 Z" /></g></g></svg>
